# xmcd
# 
# Track frame offsets:
#     150
#     12231
#     18143
#     29766
#     39672
#     48495
#     60190
#     67234
#     76629
#     85691
#     97002
#     109412
#     123488
#     134793
#     145129
#     155909
#     166317
#     177217
#     194265
#     204943
#     218889
#     230339
#     243027
#     253874
# 
# Disc length: 3528
# 
# Revision: 0
# Processed by: cddbd v1.5.2PL0 Copyright (c) Steve Scherf et al.
# Submitted via: fre:ac v1.1beta1pre5
# 
DISCID=500dc618
DTITLE=Various Artist - Willie Nelson and Waylon Jennings - Original Outlaws
DYEAR=0
DGENRE=
TTITLE0=Waylon Jennings - Crying
TTITLE1=Willie Nelson - The Ghost
TTITLE2=Waylon Jennings - Sally Was A Good Old Girl
TTITLE3=Willie Nelson - Let's Pretend
TTITLE4=Waylon Jennings - Abilene
TTITLE5=Willie Nelson - I'm Gonna Lose A Lot Of Teardrops
TTITLE6=Waylon Jennings - It's So Easy
TTITLE7=Willie Nelson - Waiting Time
TTITLE8=Waylon Jennings - Love's Gonna Live Here
TTITLE9=Willie Nelson - Go Away
TTITLE10=Waylon Jennings - Don't Think Twice
TTITLE11=Willie Nelson - No Tomorrow In Sight
TTITLE12=Waylon Jennings - Dream Baby
TTITLE13=Willie Nelson - A New Way To Cry
TTITLE14=Waylon Jennings - Lorena
TTITLE15=Willie Nelson - Broken Promises
TTITLE16=Waylon Jennings - Burning Memories
TTITLE17=Willie Nelson - Let My Mind Wander
TTITLE18=Waylon Jennings - White Lightning
TTITLE19=Willie Nelson - A Moment Isn't Very Long
TTITLE20=Waylon Jennings - Big Mamou
TTITLE21=Willie Nelson - I Can't Find The Time
TTITLE22=Waylon Jennings - Money
TTITLE23=Willie Nelson - I Feel Sorry For Him
EXTD=
EXTT0=
EXTT1=
EXTT2=
EXTT3=
EXTT4=
EXTT5=
EXTT6=
EXTT7=
EXTT8=
EXTT9=
EXTT10=
EXTT11=
EXTT12=
EXTT13=
EXTT14=
EXTT15=
EXTT16=
EXTT17=
EXTT18=
EXTT19=
EXTT20=
EXTT21=
EXTT22=
EXTT23=
PLAYORDER=
